<svg xmlns="http://www.w3.org/2000/svg" viewBox="0 0 46.05 46.04"><defs><style>.cls-1{fill:#0fbd71;}</style></defs><g id="Capa_2" data-name="Capa 2"><g id="Capa_1-2" data-name="Capa 1"><path class="cls-1" d="M36.57,24l-3.51-5.84A9.5,9.5,0,0,0,36,12.56a1,1,0,0,0-1-1.11H33.43a1,1,0,0,0-1,.8,5.11,5.11,0,0,1-3.76,4.14v-4a1,1,0,0,0-1-1h-1.6a1,1,0,0,0-1,1V24a1,1,0,0,0,1,1h1.6a1,1,0,0,0,1-1V19.87c.34-.06.71-.14,1.1-.23l3,5a.69.69,0,0,0,.59.33H36a.68.68,0,0,0,.58-1M16.4,11.32a6.95,6.95,0,1,0,6.94,6.94A6.94,6.94,0,0,0,16.4,11.32Zm0,10.43a3.49,3.49,0,1,1,3.48-3.49A3.49,3.49,0,0,1,16.4,21.75ZM39.61,28.8,38.75,28a1.16,1.16,0,0,0-1.6,0A20.42,20.42,0,0,1,9,28a1.16,1.16,0,0,0-1.6,0l-.85.81a1.13,1.13,0,0,0-.37.84,1.16,1.16,0,0,0,.36.85,23.91,23.91,0,0,0,33.11,0,1.16,1.16,0,0,0,.36-.85A1.21,1.21,0,0,0,39.61,28.8ZM39.21,46H6.84A6.85,6.85,0,0,1,0,39.19V6.84A6.84,6.84,0,0,1,6.84,0H39.21a6.84,6.84,0,0,1,6.84,6.84V39.19A6.85,6.85,0,0,1,39.21,46Z"/></g></g></svg>